<?xml version="1.0" standalone="no"?>
<!DOCTYPE svg PUBLIC "-//W3C//DTD SVG 20010904//EN"
 "http://www.w3.org/TR/2001/REC-SVG-20010904/DTD/svg10.dtd">
<svg version="1.0" xmlns="http://www.w3.org/2000/svg"
 width="450.000000pt" height="450.000000pt" viewBox="0 0 450.000000 450.000000"
 preserveAspectRatio="xMidYMid meet">
<metadata>
Created by potrace 1.11, written by Peter Selinger 2001-2013
</metadata>
<g transform="translate(0.000000,450.000000) scale(0.100000,-0.100000)"
fill="#000000" stroke="none">
<path d="M1370 3002 c-134 -19 -272 -122 -308 -229 l-11 -32 46 35 c138 105
278 126 463 69 142 -44 296 -40 400 11 50 24 112 77 132 112 l18 30 -73 -31
c-121 -51 -242 -47 -469 17 -58 17 -151 25 -198 18z"/>
<path d="M2938 2674 c-48 -25 -42 -87 8 -100 19 -5 22 -9 13 -15 -8 -4 -19 -3
-27 3 -17 14 -35 -3 -30 -28 4 -21 44 -34 82 -27 56 11 65 95 11 109 -14 3
-25 10 -25 15 0 5 11 4 25 -1 25 -10 26 -10 29 32 2 19 -58 27 -86 12z"/>
<path d="M1340 2596 l0 -86 29 0 c27 0 30 3 33 38 l3 37 22 -37 c18 -31 28
-38 53 -38 l30 0 0 85 0 85 -30 0 c-29 0 -30 -2 -30 -42 l0 -43 -23 40 c-18
32 -29 41 -55 43 l-32 3 0 -85z"/>
<path d="M1578 2674 c0 -5 -2 -44 -2 -86 l-1 -78 56 0 c46 0 59 4 78 24 34 36
37 78 8 111 -19 23 -34 29 -80 33 -31 2 -58 1 -59 -4z m96 -69 c3 -8 -2 -22
-11 -31 -16 -15 -17 -15 -23 2 -15 41 18 69 34 29z"/>
<path d="M1795 2623 c2 -98 17 -117 90 -115 46 1 65 33 65 108 l0 64 -30 0
c-30 0 -30 -1 -30 -54 0 -50 -12 -77 -27 -62 -3 3 -5 30 -4 61 l1 55 -33 0
-33 0 1 -57z"/>
<path d="M2027 2662 c-32 -36 -8 -92 39 -92 15 0 16 -2 5 -9 -9 -6 -22 -6 -33
0 -13 7 -20 5 -27 -10 -22 -39 61 -63 103 -30 42 33 33 82 -17 94 -15 4 -24
11 -21 16 3 5 14 5 25 -1 16 -9 21 -7 28 12 11 28 -2 38 -50 38 -22 0 -42 -7
-52 -18z"/>
<path d="M2183 2655 c0 -15 8 -30 18 -36 16 -8 19 -19 16 -59 l-3 -50 33 0 33
0 0 55 c0 42 3 55 15 55 10 0 15 10 15 30 l0 30 -64 0 c-61 0 -63 -1 -63 -25z"/>
<path d="M2369 2669 c-3 -8 -4 -45 -4 -84 l1 -70 32 -3 c28 -3 32 0 33 20 l0
23 11 -22 c8 -17 20 -23 45 -23 39 0 40 3 13 40 -17 24 -18 29 -5 34 17 6 20
53 6 75 -13 20 -126 28 -132 10z m81 -55 c0 -8 -4 -14 -10 -14 -5 0 -10 9 -10
21 0 11 5 17 10 14 6 -3 10 -13 10 -21z"/>
<path d="M2570 2596 l0 -86 33 0 33 0 -1 83 0 82 -33 3 -32 3 0 -85z"/>
<path d="M2731 2658 c-4 -13 -18 -49 -30 -81 -11 -32 -21 -60 -21 -62 0 -3 16
-5 35 -5 19 0 35 5 35 10 0 6 11 10 25 10 14 0 25 -4 25 -10 0 -5 15 -10 33
-10 l34 0 -24 68 c-13 37 -27 75 -30 85 -9 27 -71 23 -82 -5z m45 -85 c-11
-11 -17 4 -9 23 7 18 8 18 11 1 2 -10 1 -21 -2 -24z"/>
<path d="M830 2650 c-11 -11 -20 -31 -20 -45 0 -39 -21 -75 -49 -81 -14 -4
-37 -13 -49 -21 -22 -13 -27 -12 -60 10 -55 37 -73 40 -104 14 -40 -33 -45
-67 -14 -104 30 -35 31 -43 12 -98 -17 -47 -48 -75 -85 -75 -39 0 -71 -34 -71
-74 0 -42 25 -64 81 -74 35 -6 46 -13 58 -37 42 -89 41 -79 10 -125 -33 -48
-34 -53 -17 -83 28 -53 60 -58 124 -21 l45 27 42 -19 c58 -24 67 -34 72 -79 6
-42 25 -70 56 -78 18 -5 19 2 19 155 0 109 -3 157 -11 153 -19 -12 -113 43
-138 80 -48 71 -35 183 25 236 28 24 80 49 104 49 19 0 20 5 20 155 0 131 -2
155 -15 155 -8 0 -24 -9 -35 -20z"/>
<path d="M960 2178 l0 -493 102 1 c57 1 106 2 109 3 4 1 7 222 7 491 l0 490
-109 0 -109 0 0 -492z"/>
<path d="M1645 2419 c-36 -11 -53 -24 -83 -63 -18 -24 -22 -26 -23 -10 -4 75
6 68 -99 69 l-96 1 1 -365 0 -365 93 0 c52 -1 98 1 102 4 5 3 10 126 12 274 3
268 3 268 27 287 29 23 74 25 92 2 11 -12 15 -79 19 -292 l5 -275 85 -1 c47 0
92 2 100 5 13 4 15 43 16 265 0 182 4 267 13 282 13 26 50 38 86 29 34 -9 36
-28 38 -326 l2 -254 75 1 c41 0 87 1 101 2 l26 1 -2 308 c-1 188 -6 317 -13
332 -28 68 -90 100 -184 96 -68 -2 -107 -21 -147 -71 -21 -28 -31 -31 -31 -12
-1 21 -37 57 -74 72 -39 17 -95 18 -141 4z"/>
<path d="M2694 2416 c-46 -13 -70 -29 -102 -70 l-22 -29 0 46 c0 27 -5 46 -12
49 -7 2 -49 4 -93 4 l-80 -1 -3 -477 -2 -478 100 0 100 0 0 136 0 135 28 -19
c86 -61 212 -41 279 45 57 73 81 178 77 330 -4 145 -32 222 -103 286 -23 20
-44 37 -49 37 -4 0 -23 4 -42 9 -21 4 -51 3 -76 -3z m19 -144 c29 -32 38 -76
39 -192 2 -140 -7 -201 -33 -234 -25 -32 -76 -35 -110 -7 -22 18 -24 27 -27
155 -5 181 2 242 35 272 31 28 74 31 96 6z"/>
<path d="M3386 2415 c-45 -16 -71 -44 -102 -110 l-24 -50 2 71 c1 39 -1 75 -4
80 -4 5 -44 9 -90 9 l-83 0 -1 -362 c-1 -257 2 -363 10 -365 10 -3 116 -3 173
1 22 1 22 2 23 192 0 105 5 209 10 230 19 71 69 110 145 113 18 1 20 9 23 99
1 53 -1 97 -5 98 -4 0 -15 2 -24 4 -8 1 -32 -3 -53 -10z"/>
<path d="M3706 2414 c-121 -43 -184 -161 -187 -354 -4 -266 112 -405 325 -387
126 11 206 75 243 195 24 79 25 285 1 363 -24 75 -76 141 -135 170 -58 28
-186 35 -247 13z m139 -136 c40 -18 53 -80 51 -243 -2 -159 -17 -209 -63 -218
-39 -7 -58 2 -79 36 -17 28 -19 52 -19 192 0 178 9 217 54 234 14 5 27 10 28
10 1 1 14 -4 28 -11z"/>
</g>
</svg>
